<svg width="167" height="20" viewBox="0 0 167 20" fill="none" xmlns="http://www.w3.org/2000/svg">
<path d="M6.79236 15.319C5.5358 15.319 4.40007 15.0112 3.38515 14.3954C2.38232 13.7797 1.59093 12.9297 1.01098 11.8455C0.443114 10.748 0.15918 9.52321 0.15918 8.1713C0.15918 6.81939 0.443114 5.60133 1.01098 4.51713C1.59093 3.41954 2.38836 2.56289 3.40328 1.94717C4.41819 1.33144 5.55393 1.02358 6.81049 1.02358C7.75291 1.02358 8.62283 1.19759 9.42026 1.54561C10.2177 1.89362 10.8943 2.40226 11.4501 3.07153L10.5983 4.01518C9.60754 2.90421 8.35702 2.34872 6.84673 2.34872C5.8439 2.34872 4.93169 2.60304 4.11009 3.11168C3.2885 3.62032 2.64209 4.31635 2.17088 5.19978C1.71176 6.0832 1.48219 7.07371 1.48219 8.1713C1.48219 9.26889 1.71176 10.2594 2.17088 11.1428C2.64209 12.0262 3.2885 12.7223 4.11009 13.2309C4.93169 13.7396 5.8439 13.9939 6.84673 13.9939C8.3691 13.9939 9.61962 13.4317 10.5983 12.3073L11.4501 13.251C10.8943 13.9203 10.2117 14.4356 9.40214 14.797C8.60471 15.145 7.73478 15.319 6.79236 15.319Z" fill="#2887D9"/>
<path d="M22.0128 4.6376L17.2463 16.4635C16.8597 17.454 16.4127 18.1567 15.9052 18.5716C15.3977 18.9866 14.7876 19.194 14.0747 19.194C13.6156 19.194 13.1867 19.1137 12.788 18.9531C12.3893 18.7925 12.0449 18.5515 11.7549 18.2303L12.353 17.1662C12.8363 17.7016 13.4162 17.9693 14.0929 17.9693C14.5278 17.9693 14.8963 17.8354 15.1984 17.5677C15.5125 17.3 15.8025 16.8449 16.0683 16.2024L16.4852 15.1785L12.2261 4.6376H13.5673L17.1557 13.6124L20.7442 4.6376H22.0128Z" fill="#2887D9"/>
<path d="M31.2126 4.6376V15.1986H29.9258V10.8015C28.8263 11.3369 27.745 11.6046 26.6817 11.6046C25.5339 11.6046 24.6398 11.3168 23.9994 10.7413C23.3591 10.1523 23.0389 9.27558 23.0389 8.11107V4.6376H24.3257V8.03075C24.3257 8.82048 24.5552 9.42282 25.0144 9.83776C25.4735 10.2393 26.1078 10.4401 26.9173 10.4401C27.8114 10.4401 28.8142 10.1791 29.9258 9.65706V4.6376H31.2126Z" fill="#2887D9"/>
<path d="M38.1472 4.55729C39.3917 4.55729 40.3462 4.9053 41.0107 5.60133C41.6752 6.28398 42.0075 7.30126 42.0075 8.65317V15.1986H40.7751V13.5522C40.4851 14.101 40.0562 14.5293 39.4883 14.8371C38.9326 15.145 38.268 15.2989 37.4948 15.2989C36.4315 15.2989 35.5858 15.0178 34.9575 14.4557C34.3292 13.8935 34.0151 13.1506 34.0151 12.227C34.0151 11.3302 34.305 10.6074 34.885 10.0586C35.477 9.50982 36.4134 9.23543 37.6941 9.23543H40.7207V8.59293C40.7207 7.68274 40.4912 6.9934 40.032 6.52492C39.5729 6.04305 38.9024 5.80211 38.0203 5.80211C37.4162 5.80211 36.8363 5.91589 36.2805 6.14344C35.7247 6.3576 35.2475 6.65877 34.8487 7.04694L34.2688 5.98281C34.7521 5.52772 35.332 5.1797 36.0086 4.93876C36.6852 4.68445 37.3981 4.55729 38.1472 4.55729ZM37.6941 14.1746C38.4191 14.1746 39.0413 13.9939 39.5608 13.6325C40.0804 13.2577 40.467 12.7223 40.7207 12.0262V10.2996H37.7304C36.0993 10.2996 35.2837 10.9287 35.2837 12.1869C35.2837 12.8026 35.4951 13.2912 35.918 13.6526C36.3409 14.0006 36.9329 14.1746 37.6941 14.1746Z" fill="#2887D9"/>
<path d="M49.4201 15.2989C48.4777 15.2989 47.632 15.0714 46.8829 14.6163C46.1458 14.1612 45.5659 13.5254 45.143 12.7089C44.7201 11.879 44.5087 10.9487 44.5087 9.91807C44.5087 8.88741 44.7201 7.96383 45.143 7.14733C45.5659 6.33083 46.1458 5.69503 46.8829 5.23993C47.632 4.78483 48.4777 4.55729 49.4201 4.55729C50.2417 4.55729 50.9727 4.73799 51.6131 5.09939C52.2655 5.4474 52.779 5.96274 53.1536 6.64538L52.193 7.36819C51.8789 6.84616 51.4802 6.45799 50.9969 6.20367C50.5136 5.93597 49.988 5.80211 49.4201 5.80211C48.7314 5.80211 48.1092 5.97612 47.5534 6.32414C47.0097 6.65877 46.5808 7.14064 46.2667 7.76974C45.9646 8.39885 45.8136 9.11496 45.8136 9.91807C45.8136 10.7346 45.9646 11.4574 46.2667 12.0865C46.5808 12.7022 47.0097 13.1841 47.5534 13.5321C48.1092 13.8667 48.7314 14.034 49.4201 14.034C49.988 14.034 50.5136 13.9069 50.9969 13.6526C51.4802 13.3982 51.8789 13.0101 52.193 12.488L53.1536 13.2108C52.779 13.8935 52.2655 14.4155 51.6131 14.7769C50.9606 15.1249 50.2296 15.2989 49.4201 15.2989Z" fill="#2887D9"/>
<path d="M55.6451 4.6376H56.9319V9.31574H62.9307V4.6376H64.2175V15.1986H62.9307V10.5405H56.9319V15.1986H55.6451V4.6376Z" fill="#2887D9"/>
<path d="M71.1553 4.55729C72.3997 4.55729 73.3542 4.9053 74.0188 5.60133C74.6833 6.28398 75.0155 7.30126 75.0155 8.65317V15.1986H73.7831V13.5522C73.4932 14.101 73.0643 14.5293 72.4964 14.8371C71.9406 15.145 71.2761 15.2989 70.5028 15.2989C69.4396 15.2989 68.5938 15.0178 67.9655 14.4557C67.3372 13.8935 67.0231 13.1506 67.0231 12.227C67.0231 11.3302 67.3131 10.6074 67.893 10.0586C68.4851 9.50982 69.4214 9.23543 70.7022 9.23543H73.7288V8.59293C73.7288 7.68274 73.4992 6.9934 73.0401 6.52492C72.581 6.04305 71.9104 5.80211 71.0284 5.80211C70.4243 5.80211 69.8443 5.91589 69.2885 6.14344C68.7327 6.3576 68.2555 6.65877 67.8568 7.04694L67.2768 5.98281C67.7601 5.52772 68.3401 5.1797 69.0167 4.93876C69.6933 4.68445 70.4062 4.55729 71.1553 4.55729ZM70.7022 14.1746C71.4271 14.1746 72.0493 13.9939 72.5689 13.6325C73.0884 13.2577 73.4751 12.7223 73.7288 12.0262V10.2996H70.7384C69.1073 10.2996 68.2917 10.9287 68.2917 12.1869C68.2917 12.8026 68.5032 13.2912 68.9261 13.6526C69.3489 14.0006 69.941 14.1746 70.7022 14.1746Z" fill="#2887D9"/>
<path d="M91.7385 4.6376V15.1986H90.4518V5.9025H84.471V15.1986H83.1843V4.6376H91.7385Z" fill="#2887D9"/>
<path d="M103.733 10.3598H95.7588C95.8313 11.4574 96.2119 12.3475 96.9006 13.0301C97.5893 13.6994 98.4592 14.034 99.5104 14.034C100.102 14.034 100.646 13.9203 101.141 13.6927C101.637 13.4518 102.066 13.1038 102.428 12.6487L103.153 13.5722C102.73 14.1344 102.199 14.5628 101.558 14.8572C100.93 15.1517 100.235 15.2989 99.4741 15.2989C98.4955 15.2989 97.6255 15.0714 96.8643 14.6163C96.1152 14.1478 95.5293 13.5053 95.1064 12.6888C94.6835 11.8723 94.4721 10.9487 94.4721 9.91807C94.4721 8.88741 94.6714 7.96383 95.0701 7.14733C95.4809 6.33083 96.0367 5.69503 96.7375 5.23993C97.4503 4.78483 98.2478 4.55729 99.1298 4.55729C100.012 4.55729 100.803 4.78483 101.504 5.23993C102.205 5.69503 102.754 6.33083 103.153 7.14733C103.552 7.95044 103.751 8.87403 103.751 9.91807L103.733 10.3598ZM99.1298 5.78204C98.2115 5.78204 97.4383 6.10997 96.81 6.76585C96.1938 7.40834 95.8434 8.25161 95.7588 9.29566H102.519C102.434 8.25161 102.078 7.40834 101.45 6.76585C100.833 6.10997 100.06 5.78204 99.1298 5.78204Z" fill="#2887D9"/>
<path d="M115.702 13.9537V17.7484H114.488V15.1986H105.952V17.7484H104.738V13.9537H105.281C105.922 13.9136 106.357 13.3915 106.586 12.3876C106.816 11.3838 106.973 9.97831 107.057 8.1713L107.184 4.6376H114.216V13.9537H115.702ZM108.235 8.25161C108.175 9.75076 108.06 10.9889 107.891 11.966C107.722 12.9298 107.42 13.5923 106.985 13.9537H112.929V5.9025H108.344L108.235 8.25161Z" fill="#2887D9"/>
<path d="M118.21 4.6376H119.497V15.1986H118.21V4.6376ZM118.862 2.32864C118.597 2.32864 118.373 2.22826 118.192 2.02748C118.011 1.8267 117.92 1.58576 117.92 1.30467C117.92 1.03697 118.011 0.802728 118.192 0.601949C118.373 0.401171 118.597 0.300781 118.862 0.300781C119.128 0.300781 119.352 0.401171 119.533 0.601949C119.714 0.789342 119.805 1.01689 119.805 1.2846C119.805 1.57907 119.714 1.8267 119.533 2.02748C119.352 2.22826 119.128 2.32864 118.862 2.32864Z" fill="#2887D9"/>
<path d="M126.446 4.55729C127.69 4.55729 128.645 4.9053 129.309 5.60133C129.974 6.28398 130.306 7.30126 130.306 8.65317V15.1986H129.074V13.5522C128.784 14.101 128.355 14.5293 127.787 14.8371C127.231 15.145 126.567 15.2989 125.793 15.2989C124.73 15.2989 123.884 15.0178 123.256 14.4557C122.628 13.8935 122.314 13.1506 122.314 12.227C122.314 11.3302 122.604 10.6074 123.184 10.0586C123.776 9.50982 124.712 9.23543 125.993 9.23543H129.019V8.59293C129.019 7.68274 128.79 6.9934 128.331 6.52492C127.872 6.04305 127.201 5.80211 126.319 5.80211C125.715 5.80211 125.135 5.91589 124.579 6.14344C124.023 6.3576 123.546 6.65877 123.147 7.04694L122.568 5.98281C123.051 5.52772 123.631 5.1797 124.307 4.93876C124.984 4.68445 125.697 4.55729 126.446 4.55729ZM125.993 14.1746C126.718 14.1746 127.34 13.9939 127.86 13.6325C128.379 13.2577 128.766 12.7223 129.019 12.0262V10.2996H126.029C124.398 10.2996 123.582 10.9287 123.582 12.1869C123.582 12.8026 123.794 13.2912 124.217 13.6526C124.64 14.0006 125.232 14.1746 125.993 14.1746Z" fill="#2887D9"/>
<path d="M140.437 5.9025H136.831V15.1986H135.544V5.9025H131.937V4.6376H140.437V5.9025Z" fill="#2887D9"/>
<path d="M147.209 4.55729C148.103 4.55729 148.913 4.78483 149.638 5.23993C150.363 5.68165 150.931 6.31075 151.341 7.12725C151.752 7.94375 151.958 8.87403 151.958 9.91807C151.958 10.9755 151.752 11.9125 151.341 12.729C150.931 13.5455 150.363 14.1813 149.638 14.6364C148.925 15.0781 148.115 15.2989 147.209 15.2989C146.436 15.2989 145.735 15.1249 145.107 14.7769C144.491 14.4155 143.983 13.8935 143.585 13.2108V19.0937H142.298V4.6376H143.53V6.72569C143.917 6.02966 144.424 5.49425 145.053 5.11947C145.693 4.74468 146.412 4.55729 147.209 4.55729ZM147.119 14.034C147.783 14.034 148.387 13.8667 148.931 13.5321C149.475 13.1841 149.898 12.6955 150.2 12.0664C150.514 11.4373 150.671 10.7212 150.671 9.91807C150.671 9.11496 150.514 8.40554 150.2 7.78982C149.898 7.16072 149.475 6.67215 148.931 6.32414C148.387 5.97612 147.783 5.80211 147.119 5.80211C146.442 5.80211 145.832 5.97612 145.288 6.32414C144.757 6.67215 144.334 7.16072 144.02 7.78982C143.718 8.40554 143.567 9.11496 143.567 9.91807C143.567 10.7212 143.718 11.4373 144.02 12.0664C144.334 12.6955 144.757 13.1841 145.288 13.5321C145.832 13.8667 146.442 14.034 147.119 14.034Z" fill="#2887D9"/>
<path d="M154.722 4.6376H156.009V15.1986H154.722V4.6376ZM155.375 2.32864C155.109 2.32864 154.885 2.22826 154.704 2.02748C154.523 1.8267 154.432 1.58576 154.432 1.30467C154.432 1.03697 154.523 0.802728 154.704 0.601949C154.885 0.401171 155.109 0.300781 155.375 0.300781C155.641 0.300781 155.864 0.401171 156.045 0.601949C156.227 0.789342 156.317 1.01689 156.317 1.2846C156.317 1.57907 156.227 1.8267 156.045 2.02748C155.864 2.22826 155.641 2.32864 155.375 2.32864Z" fill="#2887D9"/>
<path d="M167 4.6376V15.1986H165.822V11.705H162.831H162.469L160.258 15.1986H158.862L161.237 11.5042C160.5 11.2767 159.932 10.8885 159.533 10.3397C159.134 9.79091 158.935 9.09488 158.935 8.25161C158.935 7.07371 159.297 6.1769 160.022 5.56118C160.747 4.94546 161.738 4.6376 162.995 4.6376H167ZM160.24 8.29177C160.24 9.85784 161.14 10.6409 162.94 10.6409H165.822V5.9025H163.031C161.17 5.9025 160.24 6.69892 160.24 8.29177Z" fill="#2887D9"/>
</svg>
