<svg width="170" height="23" viewBox="0 0 170 23" fill="none" xmlns="http://www.w3.org/2000/svg">
<path d="M7.49586 1.33474V21.948H2.04674V1.33474H7.49586ZM14.4069 20.4462L15.4702 21.948H7.41612V20.4462H14.4069ZM13.5298 11.0524V12.5248H7.41612V11.0524H13.5298ZM14.9386 1.33474V2.83657H7.41612V1.33474H14.9386ZM16.56 15.1162L15.5499 21.948H9.80841L10.7653 20.4462C11.6159 20.4462 12.4045 20.24 13.131 19.8278C13.8753 19.3959 14.5221 18.7873 15.0715 18.002C15.6208 17.1971 16.0284 16.2352 16.2942 15.1162H16.56ZM13.5298 12.4659V15.8818H13.264V15.7346C13.264 14.8119 12.9893 14.0561 12.4399 13.4671C11.9083 12.8585 11.2261 12.5444 10.3932 12.5248V12.4659H13.5298ZM13.5298 7.69541V11.1113H10.3932V11.0524C11.2261 11.0328 11.9172 10.7187 12.4665 10.1101C13.0159 9.50152 13.2817 8.73589 13.264 7.8132V7.69541H13.5298ZM14.9386 2.74822V6.87088H14.6727V6.6353C14.6727 5.45739 14.3715 4.53471 13.769 3.86723C13.1665 3.18012 12.3248 2.82675 11.2438 2.80712V2.74822H14.9386ZM14.9386 0.804688V1.65867L11.6957 1.33474C12.0855 1.33474 12.4931 1.3053 12.9184 1.2464C13.3614 1.18751 13.769 1.11879 14.1411 1.04027C14.5133 0.961741 14.7791 0.883214 14.9386 0.804688ZM2.12649 19.7983V21.948H0V21.6535C0 21.6535 0.0531621 21.6535 0.159486 21.6535C0.283531 21.6535 0.345554 21.6535 0.345554 21.6535C0.806292 21.6535 1.19615 21.4768 1.51512 21.1235C1.85181 20.7505 2.02902 20.3088 2.04674 19.7983H2.12649ZM2.12649 3.48441H2.04674C2.02902 2.97399 1.85181 2.54209 1.51512 2.18872C1.19615 1.81572 0.806292 1.62922 0.345554 1.62922C0.345554 1.62922 0.283531 1.62922 0.159486 1.62922C0.0531621 1.62922 0 1.62922 0 1.62922V1.33474H2.12649V3.48441Z" fill="#2887D9"/>
<path d="M30.9933 22.3014L22.8595 4.42673H28.9466L33.2527 15.0867L30.9933 22.3014ZM30.9933 22.3014L30.9401 17.9726L36.4956 4.36784H38.6221L32.5882 18.3554C32.5173 18.5321 32.411 18.7971 32.2692 19.1505C32.1274 19.4842 31.9768 19.8572 31.8173 20.2695C31.6756 20.6621 31.5427 21.0449 31.4186 21.4179C31.3123 21.7713 31.2414 22.0658 31.206 22.3014H30.9933ZM35.7779 6.10524C35.9728 5.59482 35.9462 5.212 35.6982 4.95679C35.4678 4.68195 35.202 4.54452 34.9007 4.54452H34.6881V4.27949H40.1372V4.57397C40.1372 4.57397 40.1018 4.57397 40.0309 4.57397C39.96 4.57397 39.9245 4.57397 39.9245 4.57397C39.5879 4.57397 39.2246 4.69176 38.8347 4.92734C38.4449 5.14329 38.1259 5.53592 37.8778 6.10524H35.7779ZM29.6111 6.10524H23.6304C23.3823 5.53592 23.0633 5.14329 22.6734 4.92734C22.3013 4.69176 21.938 4.57397 21.5836 4.57397C21.5836 4.57397 21.557 4.57397 21.5039 4.57397C21.433 4.57397 21.3975 4.57397 21.3975 4.57397V4.27949H30.7275V4.54452H30.5149C30.2313 4.54452 29.9655 4.68195 29.7174 4.95679C29.4693 5.212 29.4339 5.59482 29.6111 6.10524Z" fill="#2887D9"/>
<path d="M52.255 4.27949V21.948H47.0452V4.27949H52.255ZM47.1249 20.1223V21.948H45.3971V21.6535C45.3971 21.6535 45.4414 21.6535 45.53 21.6535C45.6186 21.6535 45.6718 21.6535 45.6895 21.6535C46.0439 21.6535 46.354 21.5063 46.6199 21.2118C46.9034 20.9173 47.0452 20.5542 47.0452 20.1223H47.1249ZM52.2019 20.1223H52.255C52.2728 20.5542 52.4145 20.9173 52.6803 21.2118C52.9462 21.5063 53.2651 21.6535 53.6373 21.6535C53.6373 21.6535 53.6816 21.6535 53.7702 21.6535C53.8588 21.6535 53.9119 21.6535 53.9297 21.6535V21.948H52.2019V20.1223ZM52.2019 6.10524V4.27949H53.9031V4.57397C53.9031 4.57397 53.8588 4.57397 53.7702 4.57397C53.6993 4.57397 53.655 4.57397 53.6373 4.57397C53.2651 4.57397 52.9462 4.72121 52.6803 5.01568C52.4145 5.29053 52.2728 5.65371 52.255 6.10524H52.2019ZM47.1249 6.10524H47.0452C47.0452 5.65371 46.9034 5.29053 46.6199 5.01568C46.354 4.72121 46.0439 4.57397 45.6895 4.57397C45.6718 4.57397 45.6186 4.57397 45.53 4.57397C45.4414 4.57397 45.3971 4.57397 45.3971 4.57397V4.27949H47.1249V6.10524Z" fill="#2887D9"/>
<path d="M69.3604 4.27949C71.3628 4.27949 73.0729 4.63287 74.4905 5.33961C75.9082 6.02671 76.9891 7.02793 77.7334 8.34325C78.4954 9.65858 78.8764 11.2487 78.8764 13.1138C78.8764 14.9788 78.4954 16.5689 77.7334 17.8842C76.9891 19.1996 75.9082 20.2106 74.4905 20.9173C73.0729 21.6045 71.3628 21.948 69.3604 21.948H63.2999L63.2467 20.5934C64.6821 20.5934 65.7985 20.5934 66.5959 20.5934C67.4111 20.5934 67.987 20.5934 68.3237 20.5934C68.6604 20.5934 68.8288 20.5934 68.8288 20.5934C70.2464 20.5934 71.3628 19.9358 72.178 18.6204C73.0108 17.3051 73.4273 15.4696 73.4273 13.1138C73.4273 10.7579 73.0197 8.92239 72.2046 7.60706C71.3894 6.27211 70.2641 5.60463 68.8288 5.60463C68.8288 5.60463 68.6516 5.60463 68.2971 5.60463C67.9604 5.60463 67.3668 5.60463 66.5162 5.60463C65.6656 5.60463 64.496 5.60463 63.0075 5.60463V4.27949H69.3604ZM67.3402 4.27949V21.948H62.1303V4.27949H67.3402ZM62.2101 20.0634V21.948H60.3228V21.6535C60.3228 21.6535 60.3671 21.6535 60.4557 21.6535C60.562 21.6535 60.6241 21.6535 60.6418 21.6535C61.0494 21.6535 61.3949 21.4965 61.6785 21.1824C61.9797 20.8683 62.1303 20.4953 62.1303 20.0634H62.2101ZM62.1835 6.10524H62.1303C62.1126 5.65371 61.9531 5.29053 61.6519 5.01568C61.3683 4.72121 61.0228 4.57397 60.6152 4.57397C60.6152 4.57397 60.562 4.57397 60.4557 4.57397C60.3671 4.57397 60.314 4.57397 60.2962 4.57397V4.27949H62.1835V6.10524Z" fill="#2887D9"/>
<path d="M92.2851 4.27949V21.948H87.0752V4.27949H92.2851ZM97.8937 20.5934L98.9569 21.948H92.2319V20.5934H97.8937ZM97.2292 12.5542V13.9383H92.2319V12.5542H97.2292ZM98.3987 4.27949V5.63408H92.2319V4.27949H98.3987ZM99.7544 15.764L99.0101 21.948H94.066L94.8369 20.5934C95.528 20.5934 96.1836 20.4069 96.8039 20.0339C97.4418 19.6413 98 19.0916 98.4785 18.3849C98.9569 17.6585 99.3025 16.7849 99.5151 15.764H99.7544ZM97.2292 13.8794V17.0597H96.9633V16.9419C96.9633 16.0781 96.7153 15.3714 96.2191 14.8217C95.7406 14.2524 95.1115 13.9579 94.3318 13.9383V13.8794H97.2292ZM97.2292 9.46226V12.6131H94.3318V12.5542C95.1115 12.5346 95.7406 12.2401 96.2191 11.6708C96.7153 11.1015 96.9633 10.3849 96.9633 9.52115V9.46226H97.2292ZM98.3987 5.57518V9.40336H98.1329V9.25613C98.1329 8.11749 97.8671 7.23406 97.3355 6.60585C96.8039 5.97763 96.033 5.65371 95.0229 5.63408V5.57518H98.3987ZM98.3987 3.83778V4.54452L95.7672 4.27949C96.2457 4.27949 96.7507 4.23042 97.2823 4.13226C97.8317 4.01447 98.2038 3.91631 98.3987 3.83778ZM87.1549 20.1223L87.1283 21.948H85.4006V21.6535C85.4006 21.6535 85.4449 21.6535 85.5335 21.6535C85.6221 21.6535 85.6753 21.6535 85.693 21.6535C86.0651 21.6535 86.3841 21.5063 86.6499 21.2118C86.9334 20.9173 87.0752 20.5542 87.0752 20.1223H87.1549ZM87.1549 6.13469H87.0752C87.0752 5.68316 86.9334 5.31016 86.6499 5.01568C86.3841 4.72121 86.0651 4.57397 85.693 4.57397C85.6753 4.57397 85.6221 4.57397 85.5335 4.57397C85.4449 4.57397 85.4006 4.57397 85.4006 4.57397V4.27949H87.1283L87.1549 6.13469Z" fill="#2887D9"/>
<path d="M107.84 3.89668L124.001 18.9738L124.294 22.3014L108.133 7.28314L107.84 3.89668ZM108 20.1812V21.948H106.033V21.6535C106.033 21.6535 106.104 21.6535 106.245 21.6535C106.387 21.6535 106.458 21.6535 106.458 21.6535C106.866 21.6535 107.211 21.5161 107.495 21.2413C107.778 20.9664 107.92 20.6131 107.92 20.1812H108ZM113.13 20.1812C113.148 20.6131 113.298 20.9664 113.582 21.2413C113.865 21.5161 114.202 21.6535 114.592 21.6535C114.592 21.6535 114.663 21.6535 114.804 21.6535C114.946 21.6535 115.017 21.6535 115.017 21.6535V21.948H113.077V20.1812H113.13ZM107.84 3.89668L113.13 10.1101V21.948H107.92V7.01811C107.92 6.0169 107.867 5.25126 107.76 4.72121C107.654 4.17152 107.601 3.89668 107.601 3.89668H107.84ZM124.214 4.27949V19.0916C124.214 19.7983 124.241 20.3971 124.294 20.8879C124.347 21.3591 124.4 21.7124 124.453 21.948C124.507 22.1836 124.533 22.3014 124.533 22.3014H124.294L119.004 15.5873L118.978 4.27949H124.214ZM124.161 6.04635V4.27949H126.128V4.57397C126.128 4.57397 126.048 4.57397 125.889 4.57397C125.747 4.57397 125.676 4.57397 125.676 4.57397C125.286 4.57397 124.95 4.71139 124.666 4.98624C124.382 5.26108 124.232 5.61445 124.214 6.04635H124.161ZM118.978 6.04635C118.978 5.61445 118.836 5.26108 118.552 4.98624C118.287 4.71139 117.95 4.57397 117.542 4.57397C117.542 4.57397 117.463 4.57397 117.303 4.57397C117.161 4.57397 117.09 4.57397 117.09 4.57397V4.27949H119.057V6.04635H118.978Z" fill="#2887D9"/>
<path d="M148.045 14.5861L148.736 19.2977C148.47 19.8278 148.08 20.3186 147.566 20.7701C147.053 21.2216 146.379 21.5946 145.546 21.8891C144.731 22.164 143.712 22.3014 142.489 22.3014C140.398 22.2817 138.591 21.9186 137.067 21.2118C135.561 20.5051 134.4 19.4744 133.585 18.1198C132.77 16.7456 132.362 15.0671 132.362 13.0843C132.362 11.1604 132.761 9.52115 133.558 8.16657C134.356 6.79235 135.507 5.74205 137.014 5.01568C138.538 4.28931 140.363 3.92612 142.489 3.92612C143.765 3.92612 144.899 4.0341 145.892 4.25005C146.884 4.466 147.682 4.71139 148.284 4.98624L147.939 9.99231H147.753C147.274 8.1862 146.627 6.9494 145.812 6.28193C144.997 5.59482 144.04 5.25126 142.941 5.25126C141.736 5.25126 140.753 5.585 139.991 6.25248C139.229 6.90032 138.671 7.8132 138.316 8.9911C137.962 10.1494 137.785 11.4843 137.785 12.996C137.785 14.5861 137.962 15.9702 138.316 17.1481C138.688 18.326 139.22 19.2486 139.911 19.9161C140.62 20.564 141.479 20.9173 142.489 20.9762C143.712 20.9762 144.651 20.7799 145.307 20.3873C145.98 19.975 146.494 19.3075 146.849 18.3849C147.221 17.4425 147.558 16.1763 147.859 14.5861H148.045Z" fill="#2887D9"/>
<path d="M162.531 4.27949V21.948H157.321V4.27949H162.531ZM168.139 20.5934L169.203 21.948H162.478V20.5934H168.139ZM167.475 12.5542V13.9383H162.478V12.5542H167.475ZM168.644 4.27949V5.63408H162.478V4.27949H168.644ZM170 15.764L169.256 21.948H164.312L165.083 20.5934C165.774 20.5934 166.429 20.4069 167.049 20.0339C167.687 19.6413 168.246 19.0916 168.724 18.3849C169.203 17.6585 169.548 16.7849 169.761 15.764H170ZM167.475 13.8794V17.0597H167.209V16.9419C167.209 16.0781 166.961 15.3714 166.465 14.8217C165.986 14.2524 165.357 13.9579 164.577 13.9383V13.8794H167.475ZM167.475 9.46226V12.6131H164.577V12.5542C165.357 12.5346 165.986 12.2401 166.465 11.6708C166.961 11.1015 167.209 10.3849 167.209 9.52115V9.46226H167.475ZM168.644 5.57518V9.40336H168.379V9.25613C168.379 8.11749 168.113 7.23406 167.581 6.60585C167.05 5.97763 166.279 5.65371 165.269 5.63408V5.57518H168.644ZM168.644 3.83778V4.54452L166.013 4.27949C166.491 4.27949 166.996 4.23042 167.528 4.13226C168.077 4.01447 168.449 3.91631 168.644 3.83778ZM157.401 20.1223L157.374 21.948H155.646V21.6535C155.646 21.6535 155.691 21.6535 155.779 21.6535C155.868 21.6535 155.921 21.6535 155.939 21.6535C156.311 21.6535 156.63 21.5063 156.896 21.2118C157.179 20.9173 157.321 20.5542 157.321 20.1223H157.401ZM157.401 6.13469H157.321C157.321 5.68316 157.179 5.31016 156.896 5.01568C156.63 4.72121 156.311 4.57397 155.939 4.57397C155.921 4.57397 155.868 4.57397 155.779 4.57397C155.691 4.57397 155.646 4.57397 155.646 4.57397V4.27949H157.374L157.401 6.13469Z" fill="#2887D9"/>
</svg>
