<svg width="42" height="42" viewBox="0 0 42 42" fill="none" xmlns="http://www.w3.org/2000/svg">
<path d="M36.0318 38.5C36.0318 31.7275 29.2943 26.25 20.9993 26.25C12.7043 26.25 5.9668 31.7275 5.9668 38.5M20.9993 21C23.3199 21 25.5455 20.0781 27.1865 18.4372C28.8274 16.7962 29.7493 14.5706 29.7493 12.25C29.7493 9.92936 28.8274 7.70376 27.1865 6.06282C25.5455 4.42187 23.3199 3.5 20.9993 3.5C18.6787 3.5 16.4531 4.42187 14.8121 6.06282C13.1712 7.70376 12.2493 9.92936 12.2493 12.25C12.2493 14.5706 13.1712 16.7962 14.8121 18.4372C16.4531 20.0781 18.6787 21 20.9993 21V21Z" stroke="#2887D9" stroke-width="1.5" stroke-linecap="round" stroke-linejoin="round"/>
</svg>
