<svg aria-hidden="true" style="position: absolute; width: 0; height: 0; overflow: hidden;" version="1.1" xmlns="http://www.w3.org/2000/svg" xmlns:xlink="http://www.w3.org/1999/xlink">
<defs>
<symbol id="icon-Vector-1" viewBox="0 0 41 32">
<path fill="none" stroke="#2887d9" style="stroke: var(--color1, #2887d9)" stroke-linejoin="round" stroke-linecap="round" stroke-miterlimit="4" stroke-width="2.1818" d="M15.219 20.116l10.291-8.233M25.51 20.116l-10.291-8.233M14.909 30.545h10.909c9.091 0 12.727-2.909 12.727-10.182v-8.727c0-7.273-3.636-10.182-12.727-10.182h-10.909c-9.091 0-12.727 2.909-12.727 10.182v8.727c0 7.273 3.636 10.182 12.727 10.182z"></path>
</symbol>
<symbol id="icon-burger_menu" viewBox="0 0 32 32">
<path fill="none" stroke="#72b7f2" style="stroke: var(--color1, #72b7f2)" stroke-linejoin="miter" stroke-linecap="round" stroke-miterlimit="4" stroke-width="2.6667" d="M4 9.333h24.381M4 16.191h24.381M4 23.048h24.381"></path>
</symbol>
<symbol id="icon-search" viewBox="0 0 32 32">
<path fill="none" stroke="#72b7f2" style="stroke: var(--color1, #72b7f2)" stroke-linejoin="round" stroke-linecap="round" stroke-miterlimit="4" stroke-width="2" d="M29.333 29.333l-2.667-2.667M15.333 28c6.996 0 12.667-5.671 12.667-12.667s-5.671-12.667-12.667-12.667v0c-6.996 0-12.667 5.671-12.667 12.667s5.671 12.667 12.667 12.667v0 0z"></path>
</symbol>
<symbol id="icon-arrowdown2" viewBox="0 0 31 32">
<path stroke-linejoin="round" stroke-linecap="round" stroke-miterlimit="10" stroke-width="1.4545" d="M25.755 12.057l-8.43 8.43c-0.464 0.462-1.104 0.747-1.81 0.747s-1.346-0.285-1.811-0.747l-8.429-8.429"></path>
</symbol>
<symbol id="icon-plus" viewBox="0 0 31 32">
<path fill="#0052b4" style="fill: var(--color2, #0052b4)" d="M23.133 17.332h-13.948c-0.281-0.003-0.533-0.129-0.704-0.326l-0.001-0.001c-0.181-0.208-0.291-0.482-0.291-0.781 0-0.003 0-0.007 0-0.010v0.001c0-0.297 0.104-0.582 0.291-0.792 0.172-0.199 0.423-0.325 0.704-0.328h13.948c0.264 0 0.518 0.118 0.705 0.328 0.186 0.21 0.291 0.494 0.291 0.792 0 0.296-0.104 0.581-0.291 0.791-0.172 0.199-0.423 0.325-0.704 0.328h-0.001z"></path>
<path fill="#0052b4" style="fill: var(--color2, #0052b4)" d="M17.213 8.942l-0.153 13.948c-0.007 0.281-0.135 0.531-0.334 0.7l-0.001 0.001c-0.206 0.176-0.476 0.283-0.771 0.283-0.008 0-0.017-0-0.025-0l0.001 0c-0.303-0.001-0.58-0.114-0.79-0.301l0.001 0.001c-0.197-0.174-0.32-0.427-0.32-0.708 0 0 0 0 0 0v0l0.154-13.948c0.003-0.264 0.124-0.516 0.335-0.701 0.212-0.184 0.498-0.286 0.795-0.283 0.296 0.003 0.58 0.111 0.789 0.3 0.206 0.19 0.322 0.444 0.32 0.708z"></path>
</symbol>
<symbol id="icon-google" viewBox="0 0 32 32">
<path fill="none" stroke="#2887d9" style="stroke: var(--color1, #2887d9)" stroke-linejoin="round" stroke-linecap="round" stroke-miterlimit="10" stroke-width="1.1429" d="M28.8 13.6h-12.533v4.933h7.333c-0.133 1.2-0.933 3.067-2.667 4.267-1.067 0.8-2.667 1.333-4.667 1.333-3.467 0-6.533-2.267-7.6-5.6-0.267-0.8-0.4-1.733-0.4-2.667s0.133-1.867 0.4-2.667c0.133-0.267 0.133-0.533 0.267-0.667 1.251-2.848 4.047-4.8 7.298-4.8 0.012 0 0.025 0 0.037 0h-0.002c2.533 0 4.133 1.067 5.2 2l3.733-3.733c-2.267-2-5.333-3.333-8.933-3.333-5.2 0-9.733 2.933-11.867 7.333-0.933 1.867-1.467 3.867-1.467 6s0.533 4.133 1.467 6c2.133 4.4 6.667 7.333 11.867 7.333 3.6 0 6.667-1.2 8.8-3.2 2.533-2.267 4-5.733 4-9.867 0-1.067-0.133-1.867-0.267-2.667v0z"></path>
</symbol>
<symbol id="icon-facebook" viewBox="0 0 32 32">
<path fill="none" stroke="#2887d9" style="stroke: var(--color1, #2887d9)" stroke-linejoin="miter" stroke-linecap="round" stroke-miterlimit="10" stroke-width="1.1429" d="M18.667 12.4v3.867h3.467c0.267 0 0.4 0.267 0.4 0.533l-0.533 2.533c0 0.133-0.267 0.267-0.4 0.267h-2.933v9.733h-4v-9.6h-2.267c-0.267 0-0.4-0.133-0.4-0.4v-2.533c0-0.267 0.133-0.4 0.4-0.4h2.267v-4.4c0-2.267 1.733-4 4-4h3.6c0.267 0 0.4 0.133 0.4 0.4v3.2c0 0.267-0.133 0.4-0.4 0.4h-3.2c-0.267 0-0.4 0.133-0.4 0.4v0z"></path>
<path fill="none" stroke="#2887d9" style="stroke: var(--color1, #2887d9)" stroke-linejoin="round" stroke-linecap="round" stroke-miterlimit="4" stroke-width="1.1429" d="M20 29.333h-8c-6.667 0-9.333-2.667-9.333-9.333v-8c0-6.667 2.667-9.333 9.333-9.333h8c6.667 0 9.333 2.667 9.333 9.333v8c0 6.667-2.667 9.333-9.333 9.333z"></path>
</symbol>
<symbol id="icon-instagram" viewBox="0 0 32 32">
<path fill="none" stroke="#2887d9" style="stroke: var(--color1, #2887d9)" stroke-linejoin="round" stroke-linecap="round" stroke-miterlimit="4" stroke-width="1.1429" d="M12 29.333h8c6.667 0 9.333-2.667 9.333-9.333v-8c0-6.667-2.667-9.333-9.333-9.333h-8c-6.667 0-9.333 2.667-9.333 9.333v8c0 6.667 2.667 9.333 9.333 9.333z"></path>
<path fill="none" stroke="#2887d9" style="stroke: var(--color1, #2887d9)" stroke-linejoin="round" stroke-linecap="round" stroke-miterlimit="4" stroke-width="1.1429" d="M16 20.667c2.577 0 4.667-2.089 4.667-4.667s-2.089-4.667-4.667-4.667v0c-2.577 0-4.667 2.089-4.667 4.667s2.089 4.667 4.667 4.667v0z"></path>
<path fill="none" stroke="#2887d9" style="stroke: var(--color1, #2887d9)" stroke-linejoin="round" stroke-linecap="round" stroke-miterlimit="4" stroke-width="1.5238" d="M23.515 9.333h0.016"></path>
</symbol>
<symbol id="icon-email" viewBox="0 0 31 32">
<path fill="none" stroke="#2887d9" style="stroke: var(--color1, #2887d9)" stroke-linejoin="round" stroke-linecap="round" stroke-miterlimit="10" stroke-width="1.1163" d="M22.14 27.070h-13.023c-3.907 0-6.512-1.953-6.512-6.512v-9.116c0-4.558 2.605-6.512 6.512-6.512h13.023c3.907 0 6.512 1.954 6.512 6.512v9.116c0 4.558-2.605 6.512-6.512 6.512z"></path>
<path fill="none" stroke="#2887d9" style="stroke: var(--color1, #2887d9)" stroke-linejoin="round" stroke-linecap="round" stroke-miterlimit="10" stroke-width="1.1163" d="M22.14 12.093l-4.076 3.256c-1.342 1.068-3.542 1.068-4.884 0l-4.063-3.256"></path>
</symbol>
<symbol id="icon-map" viewBox="0 0 32 32">
<path fill="none" stroke="#2887d9" style="stroke: var(--color1, #2887d9)" stroke-linejoin="round" stroke-linecap="round" stroke-miterlimit="4" stroke-width="1.1429" d="M11.414 5.334v17.334M20.974 8.827v17.84M3.054 10.374v12.974c0 2.533 1.8 3.573 3.986 2.32l3.134-1.787c0.68-0.386 1.814-0.426 2.52-0.066l7 3.506c0.706 0.347 1.84 0.32 2.52-0.066l5.773-3.306c0.734-0.427 1.347-1.467 1.347-2.32v-12.974c0-2.534-1.8-3.574-3.987-2.32l-3.133 1.786c-0.68 0.387-1.814 0.427-2.52 0.067l-7-3.494c-0.706-0.346-1.84-0.32-2.52 0.066l-5.774 3.309c-0.746 0.426-1.346 1.466-1.346 2.306z"></path>
</symbol>
<symbol id="icon-arrowright" viewBox="0 0 32 32">
<path fill="none" stroke="#2887d9" style="stroke: var(--color1, #2887d9)" stroke-linejoin="round" stroke-linecap="round" stroke-miterlimit="10" stroke-width="2" d="M19.44 7.907l8.094 8.093-8.094 8.093M4.867 16h22.44"></path>
</symbol>
<symbol id="icon-Laboratory" viewBox="0 0 31 32">
<path fill="#2887d9" style="fill: var(--color1, #2887d9)" d="M22.502 1.145c-0.832 1.378-0.884 2.24-0.151 2.524 0.423 0.164 0.461 0.366 0.171 0.914-0.205 0.387-0.582 0.622-0.839 0.522-0.706-0.273-1.068 0.354-3.014 5.219-1.62 4.050-1.753 4.589-1.393 5.632 0.3 0.869 0.789 1.323 1.981 1.839 1.537 0.665 1.615 0.666 2.683 0.037 0.779-0.459 1.292-1.186 1.76-2.495 0.363-1.016 0.846-1.848 1.074-1.848 0.599 0 1.258 0.759 1.258 1.449 0 1.227-1.74 4.448-2.892 5.353l-1.191 0.936-4.375-1.726c-3.947-1.557-5.425-1.794-4.797-0.768 0.11 0.18 2.171 1.089 4.581 2.018 4.197 1.619 4.388 1.737 4.55 2.814 0.093 0.618 0.011 1.324-0.184 1.568-0.56 0.704-2.882 0.521-5.614-0.444-1.384-0.489-2.566-0.839-2.625-0.779s0.119 0.438 0.397 0.839c0.738 1.064 5.086 2.4 6.773 2.082 0.731-0.138 1.516-0.407 1.745-0.597 0.506-0.422 2.707 0.622 2.393 1.136-0.116 0.188-2.242 0.34-4.764 0.34-2.506 0-4.553 0.12-4.55 0.267 0.021 1.017 0.75 1.142 7.222 1.236 6.027 0.088 6.68 0.157 6.787 0.719 0.11 0.575-0.397 0.622-6.734 0.622-5.924 0-6.882 0.076-7.066 0.563-0.118 0.309-0.214 0.633-0.214 0.718s3.366 0.112 7.481 0.060l7.481-0.096 0.108-1.313c0.158-1.921-0.813-2.771-3.189-2.792-1.833-0.016-1.841-0.021-1.017-0.622 2.508-1.83 3.274-3.304 2.623-5.046-0.281-0.752-0.155-1.424 0.64-3.404 0.545-1.357 0.995-3.042 1.001-3.744 0.014-1.705-1.344-4.218-2.832-5.239-0.666-0.458-1.156-1.070-1.095-1.368 0.061-0.297-0.14-0.821-0.448-1.165-0.72-0.804-0.341-1.917 0.57-1.676 0.501 0.132 0.842-0.176 1.388-1.258 0.398-0.789 0.592-1.558 0.432-1.711s-1.446-0.769-2.857-1.369l-2.564-1.092-0.691 1.145zM25.85 2.464c1.459 0.632 1.894 1.425 0.782 1.425-0.861 0-3.413-1.263-3.414-1.689-0.002-0.628 0.745-0.553 2.632 0.264zM24.977 5.35c0 0.416-0.247 0.673-0.645 0.673-0.911 0-1.145-0.346-0.746-1.1 0.426-0.802 1.391-0.506 1.391 0.427zM23.833 7.267c0.823 0.336 1.497 0.765 1.497 0.953 0 0.432-2.131 5.708-2.455 6.081-0.133 0.153-1.122-0.063-2.199-0.479l-1.957-0.757 0.877-2.188c1.767-4.737 2.228-5.853 2.693-6.968l-1.326 3.585c0.288-0.7 0.674-1.121 0.933-1.017 0.243 0.098 1.115 0.453 1.938 0.789zM27.612 11.060c1.085 0.862 1.941 2.644 1.941 4.041 0 0.735-1.169 4.127-1.635 4.748-0.057 0.075-0.575-0.061-1.151-0.302l-1.049-0.439 0.686-1.756c0.943-2.416 0.874-3.399-0.317-4.523-0.838-0.79-0.944-1.077-0.651-1.743 0.441-0.998 0.945-1.004 2.176-0.026zM3.151 14.912c0 0.474 0.235 0.711 0.704 0.711 0.612 0 0.704 0.237 0.704 1.818 0 1.438-0.442 2.848-2.112 6.744-1.162 2.709-2.112 5.322-2.112 5.806 0 1.702 1.022 1.988 7.119 1.988 5.085 0 5.614-0.060 6.258-0.711 0.388-0.391 0.704-0.953 0.704-1.249s-1.109-2.774-2.464-5.506c-2.158-4.351-2.464-5.212-2.464-6.929 0-1.723 0.085-1.96 0.704-1.96 0.469 0 0.704-0.237 0.704-0.711 0-0.668-0.235-0.711-3.872-0.711s-3.873 0.043-3.873 0.711zM21.997 15.623c0.090 0 0.163 0.223 0.163 0.495 0 1.321-3.47 0.722-4.007-0.692-0.404-1.065 0.149-1.21 1.922-0.504 0.967 0.385 1.833 0.7 1.922 0.7zM8.86 18.201c0.073 1.418 0.26 2.858 0.417 3.2 0.258 0.561 0.040 0.622-2.229 0.622-2.377 0-2.495-0.038-2.15-0.688 0.2-0.378 0.364-1.818 0.364-3.2v-2.512h3.465l0.132 2.578zM27.583 21.31c0.878 0.87 0.82 2.743-0.112 3.685-1.658 1.674-4.749 0.416-4.683-1.906 0.072-2.558 2.938-3.621 4.796-1.779zM11.929 26.598c0.842 1.734 1.419 3.334 1.284 3.556-0.167 0.273-2.105 0.402-6.034 0.402-6.775 0-6.467 0.286-4.503-4.178l1.291-2.933h6.432l1.53 3.153zM5.263 25.578c0 0.391 0.158 0.711 0.352 0.711s0.352-0.32 0.352-0.711-0.158-0.711-0.352-0.711c-0.194 0-0.352 0.32-0.352 0.711zM7.514 26.793c-0.292 0.767 0.114 1.722 0.654 1.541 0.242-0.081 0.439-0.522 0.439-0.978 0-0.975-0.784-1.378-1.093-0.563z"></path>
</symbol>
<symbol id="icon-Kidney" viewBox="0 0 21 32">
<path fill="#2887d9" style="fill: var(--color1, #2887d9)" d="M8.094 0.666c-1.070 0.586-1.685 1.241-2.234 2.38-0.735 1.526-0.778 2.458-0.22 4.718 0.137 0.555-0.156 0.89-1.427 1.63-2.132 1.242-3.495 3.458-4.003 6.511-0.336 2.022-0.295 3.028 0.301 7.35 0.38 2.755 0.691 5.772 0.691 6.707 0 1.74 0.435 2.465 1.072 1.786 0.259-0.276 0.183-1.762-0.275-5.369-0.348-2.742-0.634-6.481-0.634-8.307 0-3 0.088-3.479 0.912-4.971 0.584-1.059 1.453-1.989 2.423-2.595 1.434-0.894 1.535-0.911 1.943-0.318 0.361 0.525 0.341 0.771-0.121 1.522-0.729 1.184-0.712 4.42 0.029 5.908l0.558 1.119-1.488 0.701c-2.333 1.099-2.612 2.16-2.065 7.863 0.347 3.618 0.541 4.574 0.929 4.574 0.561 0 0.577-0.574 0.172-6.014-0.228-3.059-0.188-3.696 0.28-4.456 0.819-1.332 1.282-1.121 1.029 0.471-0.417 2.626 0.811 5.413 2.894 6.571 1.535 0.853 4.656 0.782 6.31-0.143 3.086-1.725 4.846-5.181 5.461-10.725 1.041-9.382-2.876-16.627-9.466-17.508-1.288-0.172-1.883-0.057-3.074 0.594zM13.125 1.857c2.911 1.056 5.334 4.435 6.175 8.612 0.566 2.811 0.183 9.088-0.706 11.581-0.841 2.357-2.635 4.652-4.172 5.337-2.555 1.139-5.86 0.187-6.892-1.986-0.576-1.212-0.518-3.907 0.12-5.604 0.5-1.332 0.5-1.523 0-2.64-0.711-1.587-0.683-3.896 0.064-5.199 0.594-1.039 0.591-1.068-0.33-3.146-1.042-2.35-1.167-3.915-0.434-5.425 0.977-2.011 3.278-2.581 6.175-1.53z"></path>
</symbol>
<symbol id="icon-Heart" viewBox="0 0 32 32">
<path fill="#2887d9" style="fill: var(--color1, #2887d9)" d="M1.616 0.405c-0.574 0.249-1.165 0.845-1.402 1.416-0.391 0.942-0.347 1.058 0.992 2.606 0.771 0.891 1.941 2.509 2.601 3.595l1.2 1.975-0.794 0.941c-2.021 2.397-2.377 8.469-0.696 11.894 1.602 3.266 5.444 5.915 9.752 6.724 1.048 0.197 2.557 0.685 3.355 1.086 3.244 1.629 7.687 1.802 12.018 0.468 1.417-0.436 2.33-0.922 2.651-1.411 1.125-1.712 0.868-8.298-0.477-12.194-0.336-0.974-0.826-2.907-1.088-4.293s-0.837-3.405-1.277-4.484l-0.8-1.963 2.226-1.849c1.818-1.51 2.188-1.972 2.018-2.524-0.31-1.010-0.82-1.532-1.971-2.011-1.514-0.631-1.784-0.563-3.397 0.853-1.659 1.456-2.144 1.559-2.986 0.632-0.326-0.359-1.079-0.953-1.673-1.319-0.938-0.578-1.206-0.614-2.036-0.271-0.525 0.217-1.406 0.906-1.957 1.532l-1.001 1.136 1.522 1.159-0.852 1.516c-0.692 1.231-1.102 1.589-2.184 1.908-0.733 0.216-1.799 0.745-2.37 1.177-1.424 1.076-2.387 0.705-3.529-1.359l-0.88-1.59 1.435-1.196c1.204-1.004 1.403-1.329 1.24-2.019-0.397-1.67-1.998-2.778-3.17-2.192-0.354 0.178-1.035 0.686-1.512 1.129l-0.867 0.806-1.104-1.167c-1.208-1.278-1.513-1.35-2.986-0.711zM4.547 2.706l1.001 1.311 1.524-1.376c1.581-1.428 2.211-1.514 2.816-0.385 0.285 0.531 0.114 0.82-1.137 1.917-0.81 0.711-1.472 1.433-1.472 1.604s0.364 0.845 0.808 1.498l0.809 1.187-1.523 0.387c-0.837 0.213-1.538 0.358-1.556 0.323-0.883-1.661-2.113-3.524-3.232-4.894-0.785-0.961-1.428-1.812-1.428-1.89s0.236-0.378 0.524-0.665c0.797-0.795 1.759-0.464 2.865 0.985zM23.533 3.563c2.345 2.348 4.126 5.297 4.568 7.56l0.206 1.054-1.113-1.054c-0.651-0.616-1.373-1.283-2.102-1.942l-0.115-0.102c-0.607-0.544-1.517-1.615-2.022-2.379l-0.918-1.39-0.644 1.014c-0.543 0.854-0.841 1.014-1.901 1.014-1.502 0-1.574-0.349-0.421-2.041l0.836-1.227-1.389-1.474 0.869-0.681c0.478-0.375 1.083-0.682 1.345-0.682s1.523 1.048 2.802 2.33zM30.182 1.903l0.671 0.669-1.371 1.178c-2.477 2.128-2.414 2.109-3.225 0.973l-0.723-1.012 1.332-1.238c1.503-1.398 2.341-1.542 3.316-0.57zM21.835 8.928c1.816 0.545 4.144 2.254 5.494 4.033 2.256 2.973 3.455 7.334 3.465 12.603 0.005 3.058-0.045 3.318-0.72 3.751-2.548 1.637-9.215 1.925-12.393 0.536-1.994-0.872-4.202-3.11-5.407-5.482-0.956-1.881-1.83-5.568-1.717-7.242 0.083-1.219-0.145-1.618-0.722-1.262-0.6 0.37-0.176 5.107 0.653 7.291 0.385 1.013 1.197 2.564 1.806 3.446s1.107 1.668 1.107 1.747c0 0.271-2.422-0.524-3.958-1.299-2.244-1.132-3.954-2.811-4.971-4.881-0.764-1.553-0.894-2.218-0.896-4.55-0.002-3.306 0.685-5.331 2.286-6.732 1.285-1.126 3.008-1.298 5.215-0.521 1.198 0.422 1.345 0.41 1.848-0.144 0.301-0.331 1.147-0.908 1.881-1.281 1.103-0.561 1.726-0.652 3.589-0.524 1.241 0.085 2.789 0.315 3.44 0.511z"></path>
</symbol>
<symbol id="icon-Medical-Doctor" viewBox="0 0 29 32">
<path fill="#2887d9" style="fill: var(--color1, #2887d9)" d="M11.654 0.172c-1.677 0.364-2.723 1.007-2.888 1.778-0.078 0.365-0.363 2.717-0.634 5.226-0.555 5.15-0.415 6.241 1.076 8.353 2.506 3.549 8.195 3.549 10.701 0 1.491-2.111 1.631-3.202 1.076-8.353-0.644-5.969-0.607-5.844-1.886-6.467-1.258-0.612-5.641-0.928-7.446-0.537zM18.048 1.497c1.26 0.359 1.299 0.463 1.697 4.569l0.21 2.168h-10.789l0.21-2.168c0.389-4.012 0.462-4.227 1.541-4.548 1.355-0.403 5.747-0.416 7.132-0.021zM13.934 3.417c0 0.856-0.104 0.963-0.939 0.963-0.731 0-0.939 0.143-0.939 0.643s0.209 0.642 0.939 0.642c0.835 0 0.939 0.107 0.939 0.963 0 0.749 0.139 0.964 0.626 0.964s0.626-0.214 0.626-0.964c0-0.857 0.104-0.964 0.939-0.964 0.731 0 0.939-0.143 0.939-0.642s-0.209-0.643-0.939-0.643c-0.835 0-0.939-0.107-0.939-0.963 0-0.749-0.139-0.964-0.626-0.964s-0.626 0.214-0.626 0.963zM19.804 9.622c0.608 0.398 0.466 2.983-0.241 4.406-2.020 4.062-7.985 4.062-10.005 0-0.666-1.34-0.849-3.837-0.319-4.38 0.372-0.382 9.986-0.405 10.565-0.026zM9.167 19.79c-2.949 0.769-5.165 1.888-6.875 3.47-1.732 1.604-2.132 2.73-2.132 6v2.74h28.8v-2.74c0-3.269-0.4-4.397-2.129-5.998-1.513-1.4-2.918-2.176-5.699-3.143-2.968-1.033-8.665-1.189-11.965-0.329zM18.227 20.566c0.14 0.131-3.481 8.865-3.675 8.865-0.111 0-0.965-1.905-1.897-4.233l-1.793-4.477c-0.145-0.362 2.277-0.542 4.95-0.37 1.291 0.083 2.378 0.18 2.415 0.215zM11.547 25.338c1.012 2.516 1.907 4.755 1.99 4.976 0.117 0.313-1.205 0.402-5.987 0.402h-6.138v-2.408c0-2.324 0.040-2.453 1.154-3.718 1.359-1.543 5.069-3.565 6.985-3.806 0.086-0.011 0.984 2.039 1.996 4.555zM23.095 22.129c1.328 0.613 2.583 1.496 3.365 2.366 1.224 1.362 1.247 1.434 1.247 3.804v2.416h-6.138c-4.782 0-6.105-0.089-5.988-0.402 0.083-0.221 0.979-2.454 1.99-4.964 2.106-5.224 1.7-4.988 5.523-3.221z"></path>
</symbol>
<symbol id="icon-Dental-Medicine" viewBox="0 0 40 32">
<path fill="#2887d9" style="fill: var(--color1, #2887d9)" d="M4.299 0.796c-5.231 2.953-5.495 15.379-0.566 26.679 1.983 4.546 3.712 5.563 5.928 3.485 0.877-0.823 1.186-1.701 1.531-4.365 0.468-3.606 1.414-6.506 2.122-6.506 0.864 0 1.83 2.284 2.263 5.354 0.774 5.467 1.888 7.039 4.5 6.342 1.484-0.396 1.196-1.849-0.372-1.877-1.554-0.028-1.62-0.137-2.049-3.367-0.726-5.458-2.148-8.283-4.17-8.283-2.030 0-3.492 3.043-4.217 8.774-0.566 4.48-2.354 3.834-4.469-1.616-1.976-5.092-2.773-9.708-2.564-14.852 0.216-5.3 0.956-7.153 3.268-8.18 1.415-0.629 1.816-0.625 4.054 0.036 3.067 0.907 4.627 0.916 7.662 0.042 1.302-0.375 2.895-0.563 3.54-0.419 1.5 0.336 3.198 2.482 3.778 4.774 0.508 2.008 0.86 2.396 1.68 1.856 0.985-0.648-0.537-5.16-2.293-6.8-2.030-1.895-3.548-2.146-7.302-1.204-2.969 0.744-3.347 0.746-6.002 0.037-3.604-0.962-4.478-0.95-6.322 0.090zM26.649 13.364c-2.216 1.234-4.444 4.449-4.829 6.967-0.483 3.165 0.454 6.16 2.663 8.517 3.941 4.203 9.075 4.203 13.024 0 1.614-1.718 2.088-2.603 2.485-4.648 0.582-2.993-0.066-5.95-1.848-8.434-2.433-3.392-7.729-4.499-11.495-2.403zM34.265 15.011c2.3 1.111 3.701 3.247 3.952 6.028 0.272 3.015-0.098 4.26-1.9 6.381-2.77 3.259-7.040 3.525-10.058 0.625-2.106-2.024-2.734-3.718-2.498-6.742 0.44-5.648 5.528-8.696 10.504-6.292zM30.392 21.415c-3.103 3.318-3.736 4.624-2.244 4.624 0.302 0 1.958-1.547 3.683-3.438 2.618-2.87 3.047-3.55 2.602-4.119-0.293-0.375-0.561-0.682-0.597-0.682s-1.585 1.626-3.444 3.614z"></path>
</symbol>
<symbol id="icon-Stomach" viewBox="0 0 32 32">
<path fill="#2887d9" style="fill: var(--color1, #2887d9)" d="M13.548 0.28c-0.314 0.507 0.16 5.947 0.697 8.012 0.415 1.595 1.431 3.454 2.163 3.957 0.172 0.118 0.232 1.641 0.14 3.547-0.331 6.863-2.286 8.501-8 6.701-4.028-1.268-6.065-0.142-7.866 4.351-0.828 2.064-0.849 2.239-0.345 2.795 0.689 0.76 2.525 1.368 3.345 1.108 0.349-0.11 0.72-0.472 0.826-0.803 0.304-0.955 1.458-2.267 1.994-2.267 0.27 0 1.253 0.651 2.186 1.446 2.634 2.247 4.324 2.871 7.773 2.872 8.272 0.002 13.978-5.252 15.35-14.133 0.915-5.922-1.531-10.972-5.948-12.282-2.055-0.609-2.88-0.589-4.947 0.125-2.029 0.7-2.012 0.722-2.311-3.020l-0.206-2.58-2.314-0.094c-1.445-0.059-2.397 0.040-2.536 0.264zM17.387 1.965c0.107 0.399 0.203 1.306 0.213 2.015s0.207 1.725 0.437 2.257c0.357 0.826 0.338 1.132-0.128 2.096-0.3 0.621-0.688 1.486-0.863 1.924l-0.319 0.795-0.545-0.83c-0.711-1.084-1.486-4.784-1.493-7.128l-0.005-1.854h1.254c1.027 0 1.29 0.131 1.449 0.725zM26.532 7.073c3.101 1.499 4.507 4.658 4.205 9.45-0.539 8.553-5.583 13.876-13.56 14.309-3.49 0.19-4.977-0.301-7.658-2.529-2.586-2.149-3.259-2.271-4.683-0.849-0.623 0.622-1.133 1.363-1.133 1.647 0 0.668-1.704 0.702-2.25 0.045-0.536-0.644 1.55-5.023 2.679-5.626 0.931-0.497 2.72-0.358 5.763 0.448 2.798 0.741 4.252 0.483 5.656-1.003 1.396-1.478 2.019-3.708 2.238-8.020 0.269-5.278 1.090-7.282 3.353-8.183 1.398-0.557 3.89-0.412 5.388 0.312zM20.784 15.267c-1.057 0.573-1.725 2.116-1.427 3.298 0.246 0.981 4.005 4.924 4.693 4.924s4.447-3.944 4.693-4.924c0.311-1.238-0.39-2.744-1.56-3.348-0.815-0.42-1.171-0.438-2.169-0.109-0.888 0.292-1.366 0.301-1.865 0.035-0.864-0.462-1.329-0.437-2.365 0.125zM23.332 16.575c0.65 0.454 0.786 0.454 1.436 0 1.492-1.044 2.835-0.444 2.835 1.266 0 0.778-0.387 1.376-1.776 2.746l-1.776 1.752-1.776-1.752c-1.39-1.371-1.776-1.968-1.776-2.746 0-1.711 1.342-2.31 2.834-1.266z"></path>
</symbol>
<symbol id="icon-Elbow" viewBox="0 0 32 32">
<path fill="#2887d9" style="fill: var(--color1, #2887d9)" d="M0.522 0.356c-0.106 0.191-0.304 1.913-0.44 3.825-0.313 4.408 0.277 9.202 1.691 13.746 0.602 1.934 1.261 4.819 1.463 6.412 0.707 5.552 1.638 6.437 7.31 6.957 2.173 0.199 4.616 0.482 5.429 0.629s2.724 0.072 4.247-0.168c3.554-0.559 11.554-3.072 11.739-3.687 0.288-0.961-0.966-0.874-4.418 0.309-6.803 2.331-7.186 2.361-17.746 1.368-4.194-0.394-4.577-0.8-5.27-5.565-0.285-1.958-1.064-5.274-1.732-7.37-1.156-3.627-1.218-4.115-1.278-10.17-0.057-5.742-0.332-7.48-0.994-6.286zM12.354 0.338c-0.099 0.182 0.148 1.718 0.548 3.414 0.611 2.589 0.688 3.808 0.478 7.606-0.137 2.487-0.275 5.355-0.305 6.373l-0.056 1.85 3.324 0.231c2.448 0.17 3.925 0.521 5.605 1.329 2.609 1.255 9.146 2.33 9.793 1.609 0.75-0.835-0.094-1.199-3.321-1.431-2.308-0.166-3.974-0.555-5.645-1.316-1.303-0.594-3.74-1.28-5.416-1.525-3.469-0.507-3.271-0.126-2.651-5.095 0.426-3.404 0.023-8.567-0.899-11.531-0.471-1.516-1.1-2.169-1.457-1.513z"></path>
</symbol>
<symbol id="icon-Syringe" viewBox="0 0 31 32">
<path fill="#2887d9" style="fill: var(--color1, #2887d9)" d="M23.438 0.34c-0.115 0.187 0.048 0.626 0.364 0.975 0.56 0.619 0.515 0.693-1.884 3.092l-2.458 2.458-1.603-1.579c-1.246-1.228-1.688-1.493-1.987-1.195s-0.177 0.6 0.546 1.355l0.93 0.971-13.88 13.902 1.244 4.8-2.23 2.248c-1.896 1.911-2.23 2.413-2.23 3.353v1.106l5.6-5.567 4.8 1.244 13.902-13.88 0.971 0.93c0.755 0.723 1.056 0.845 1.355 0.546s0.033-0.74-1.195-1.987l-1.579-1.603 2.458-2.458c2.436-2.436 2.464-2.452 3.12-1.859 0.513 0.464 0.748 0.513 1.044 0.218s-0.409-1.174-3.122-3.896c-1.927-1.933-3.606-3.515-3.731-3.515s-0.321 0.153-0.437 0.34zM26.816 4.325l1.419 1.445-4.942 4.942-3.029-3.029 2.386-2.402c1.312-1.321 2.467-2.402 2.567-2.402s0.82 0.651 1.6 1.445zM21.053 10.083l2.709 2.723-13.49 13.49-4.417-1.181-0.588-2.2c-0.536-2.004-0.543-2.245-0.083-2.705s0.634-0.379 1.944 0.908c1.125 1.104 1.524 1.328 1.826 1.026s0.078-0.701-1.028-1.828l-1.414-1.442 1.722-1.722 0.813 0.764c0.622 0.584 0.901 0.676 1.188 0.388s0.196-0.566-0.388-1.188l-0.764-0.813 1.722-1.722 1.442 1.415c1.127 1.106 1.526 1.331 1.828 1.028s0.078-0.701-1.028-1.828l-1.414-1.442 1.722-1.722 0.813 0.764c0.622 0.584 0.901 0.676 1.188 0.388s0.196-0.566-0.388-1.188l-0.764-0.813 1.722-1.722 1.442 1.415c1.127 1.106 1.526 1.331 1.828 1.028s0.080-0.699-1.016-1.816c-1.376-1.402-1.392-1.442-0.816-2.079 0.323-0.357 0.676-0.649 0.785-0.649s1.417 1.225 2.907 2.723z"></path>
</symbol>
<symbol id="icon-Baby" viewBox="0 0 31 32">
<path fill="#2887d9" style="fill: var(--color1, #2887d9)" d="M12.733 0.443c0 0.25 0.133 0.372 0.297 0.272s0.221-0.306 0.129-0.455c-0.25-0.405-0.425-0.33-0.425 0.183zM9.38 2.327c0.101 0.163 0.306 0.221 0.455 0.129 0.405-0.25 0.33-0.426-0.183-0.426-0.25 0-0.372 0.134-0.272 0.297zM12.733 3.799c0 0.17 0.132 0.228 0.292 0.128s0.292-0.238 0.292-0.309c0-0.071-0.131-0.129-0.292-0.129s-0.292 0.139-0.292 0.309zM13.755 4.806c-3.612 0.801-5.686 1.873-7.826 4.044-1.789 1.814-3.052 4.371-3.461 7.007-0.253 1.627-0.477 2.262-0.838 2.378-0.271 0.086-0.731 0.419-1.021 0.739-0.504 0.557-0.505 0.655-0.027 2.173 0.604 1.916 1.118 2.483 2.249 2.483 0.489 0 0.855 0.156 0.856 0.365 0.004 1.052 3.612 5.283 5.173 6.064 0.445 0.222 1.006 0.564 1.247 0.759s1.521 0.574 2.846 0.842c2.248 0.455 2.567 0.455 4.816 0 1.324-0.267 2.605-0.646 2.845-0.842s0.802-0.537 1.247-0.76c1.561-0.781 5.17-5.011 5.173-6.064 0.001-0.208 0.368-0.365 0.856-0.365 1.132 0 1.645-0.567 2.249-2.483 0.479-1.518 0.477-1.616-0.026-2.173-0.29-0.321-0.75-0.653-1.021-0.739-0.361-0.115-0.586-0.747-0.834-2.349-0.838-5.392-4.566-9.366-10.116-10.784-3.461-0.798-4.195-0.993-4.927-1.189l2.739 0.625c-0.246-0.065-1.234 0.056-2.197 0.269zM17.993 5.826c5.022 0.953 8.943 5.296 9.742 10.791 0.264 1.814 0.408 2.189 0.812 2.11 0.685-0.133 1.144 0.875 0.925 2.032-0.304 1.601-0.626 1.993-1.645 2.006-0.842 0.011-1.012 0.169-1.649 1.532-0.925 1.981-3.794 4.816-5.98 5.909-1.591 0.796-1.975 0.865-4.839 0.865s-3.248-0.069-4.839-0.865c-2.186-1.093-5.055-3.929-5.98-5.909-0.637-1.364-0.807-1.522-1.649-1.532-1.044-0.013-1.353-0.412-1.667-2.15-0.227-1.255 0.206-2.054 0.979-1.809 0.401 0.127 0.53-0.219 0.784-2.11 1.019-7.588 7.511-12.292 15.005-10.87zM9.544 18.627c-0.662 1.236 1.108 2.029 1.844 0.826 0.259-0.422 0.21-0.612-0.244-0.948-0.764-0.567-1.252-0.529-1.601 0.123zM19.575 18.504c-0.452 0.336-0.502 0.527-0.245 0.948 0.462 0.758 1.472 0.828 1.847 0.128 0.239-0.446 0.205-0.687-0.147-1.039-0.564-0.564-0.739-0.569-1.455-0.037zM10.542 23.393c-1.789 2.125 0.139 5.146 3.617 5.668 4.559 0.685 8.356-2.891 6.018-5.668l-0.728-0.865h-8.18l-0.728 0.865zM14.027 23.367c0.854 0.237 1.581 0.227 2.838-0.040 1.475-0.313 1.784-0.297 2.423 0.121 0.96 0.629 1.193 1.652 0.627 2.748-1.562 3.021-7.532 3.051-9.086 0.046-0.599-1.158-0.542-1.653 0.286-2.481 0.798-0.798 1.242-0.858 2.913-0.395zM14.401 24.977c-0.446 0.446-0.203 1.845 0.375 2.155 0.953 0.51 1.805-0.123 1.695-1.26-0.077-0.797-0.216-0.941-0.976-1.016-0.488-0.048-0.98 0.007-1.094 0.122z"></path>
</symbol>
<symbol id="icon-login" viewBox="0 0 32 32">
<path fill="none" stroke="#2887d9" style="stroke: var(--color1, #2887d9)" stroke-linejoin="round" stroke-linecap="round" stroke-miterlimit="4" stroke-width="1.1429" d="M27.453 29.333c0-5.16-5.134-9.333-11.454-9.333s-11.453 4.173-11.453 9.333M15.999 16c3.682 0 6.667-2.985 6.667-6.667s-2.985-6.667-6.667-6.667v0c-3.682 0-6.667 2.985-6.667 6.667s2.985 6.667 6.667 6.667v0 0z"></path>
</symbol>
<symbol id="icon-Mask-group" viewBox="0 0 32 32">
<path fill="#2887d9" style="fill: var(--color1, #2887d9)" d="M-0.914-1.371h32.914v33.371h-32.914z"></path>
</symbol>
<symbol id="icon-phone" viewBox="0 0 35 32">
<path fill="none" stroke="#2887d9" style="stroke: var(--color1, #2887d9)" stroke-linejoin="miter" stroke-linecap="butt" stroke-miterlimit="10" stroke-width="2" d="M27.96 22.091c0 0.411-0.107 0.834-0.333 1.245-0.25 0.449-0.552 0.833-0.904 1.164l-0.003 0.002c-0.653 0.617-1.373 1.063-2.187 1.349-0.8 0.285-1.667 0.434-2.6 0.434-1.36 0-2.813-0.274-4.347-0.834s-3.067-1.315-4.587-2.263c-1.653-1.041-3.080-2.095-4.425-3.243l0.052 0.043c-1.345-1.163-2.561-2.384-3.681-3.691l-0.039-0.046c-1.093-1.303-1.973-2.606-2.613-3.897-0.64-1.303-0.96-2.549-0.96-3.737 0-0.777 0.16-1.52 0.48-2.205 0.32-0.697 0.827-1.337 1.533-1.909 0.853-0.72 1.787-1.074 2.773-1.074 0.373 0 0.747 0.068 1.080 0.205 0.347 0.137 0.653 0.343 0.893 0.64l3.093 3.737c0.24 0.285 0.413 0.549 0.533 0.8 0.12 0.24 0.187 0.48 0.187 0.697 0 0.274-0.093 0.548-0.28 0.811-0.173 0.263-0.427 0.537-0.747 0.811l-1.013 0.902c-0.131 0.105-0.213 0.265-0.213 0.444 0 0.005 0 0.009 0 0.014v-0.001c0 0.091 0.013 0.171 0.040 0.263 0.040 0.091 0.080 0.16 0.107 0.229 0.24 0.377 0.653 0.869 1.24 1.463 0.6 0.595 1.24 1.2 1.933 1.806 0.72 0.605 1.413 1.165 2.12 1.68 0.693 0.503 1.267 0.845 1.72 1.051 0.067 0.023 0.147 0.057 0.24 0.091 0.107 0.035 0.213 0.046 0.333 0.046 0.227 0 0.4-0.069 0.547-0.195l1.013-0.857c0.333-0.286 0.653-0.503 0.96-0.64 0.307-0.16 0.613-0.24 0.947-0.24 0.253 0 0.52 0.045 0.813 0.148s0.6 0.252 0.933 0.446l4.413 2.686c0.347 0.205 0.587 0.445 0.733 0.731 0.133 0.285 0.213 0.571 0.213 0.891z"></path>
</symbol>
<symbol id="icon-emptywallet" viewBox="0 0 32 32">
<path fill="none" stroke="#2887d9" style="stroke: var(--color1, #2887d9)" stroke-linejoin="round" stroke-linecap="round" stroke-miterlimit="4" stroke-width="1.1429" d="M24.053 18.066c-0.501 0.487-0.812 1.168-0.812 1.921 0 0.089 0.004 0.177 0.013 0.264l-0.001-0.011c0.12 1.44 1.44 2.493 2.88 2.493h2.533v1.587c0 2.76-2.254 5.013-5.013 5.013h-15.307c-2.76 0-5.013-2.254-5.013-5.013v-8.974c0-2.76 2.253-5.013 5.013-5.013h15.307c2.76 0 5.013 2.254 5.013 5.013v1.92h-2.693c-0.747 0-1.427 0.294-1.92 0.8z"></path>
<path fill="none" stroke="#2887d9" style="stroke: var(--color1, #2887d9)" stroke-linejoin="round" stroke-linecap="round" stroke-miterlimit="4" stroke-width="1.1429" d="M3.333 16.547v-6.094c0-0.002 0-0.005 0-0.008 0-1.614 1.007-2.993 2.427-3.543l0.026-0.009 10.587-4c0.265-0.103 0.573-0.163 0.894-0.163 1.399 0 2.533 1.134 2.533 2.533 0 0.001 0 0.002 0 0.003v-0 5.067M9.333 16h9.333M30.078 18.627v2.747c0 0.733-0.587 1.333-1.333 1.36h-2.613c-1.44 0-2.76-1.054-2.88-2.494-0.008-0.076-0.012-0.163-0.012-0.252 0-0.753 0.311-1.434 0.811-1.92l0.001-0.001c0.483-0.494 1.156-0.8 1.901-0.8 0.007 0 0.014 0 0.020 0h2.772c0.747 0.027 1.333 0.626 1.333 1.36z"></path>
</symbol>
<symbol id="icon-calendar" viewBox="0 0 32 32">
<path fill="none" stroke="#2887d9" style="stroke: var(--color1, #2887d9)" stroke-linejoin="round" stroke-linecap="round" stroke-miterlimit="10" stroke-width="1.1429" d="M10.667 2.667v4M21.333 2.667v4M4.667 12.12h22.667M28 11.333v11.333c0 4-2 6.667-6.667 6.667h-10.667c-4.667 0-6.667-2.667-6.667-6.667v-11.333c0-4 2-6.667 6.667-6.667h10.667c4.667 0 6.667 2.667 6.667 6.667z"></path>
<path fill="none" stroke="#2887d9" style="stroke: var(--color1, #2887d9)" stroke-linejoin="round" stroke-linecap="round" stroke-miterlimit="4" stroke-width="1.5238" d="M20.926 18.267h0.012M20.926 22.267h0.012M15.994 18.267h0.013M15.993 22.267h0.014M11.059 18.267h0.013M11.059 22.267h0.013"></path>
</symbol>
<symbol id="icon-call" viewBox="0 0 33 32">
<path fill="none" stroke="#2887d9" style="stroke: var(--color1, #2887d9)" stroke-linejoin="miter" stroke-linecap="butt" stroke-miterlimit="10" stroke-width="1.1429" d="M29.674 24.44c0 0.48-0.107 0.973-0.333 1.453-0.248 0.521-0.551 0.969-0.911 1.364l0.004-0.004c-0.654 0.72-1.374 1.24-2.187 1.573-0.755 0.321-1.634 0.507-2.555 0.507-0.016 0-0.032-0-0.047-0h0.002c-1.359 0-2.813-0.32-4.346-0.974s-3.067-1.533-4.587-2.64c-1.617-1.19-3.045-2.414-4.376-3.736l0.002 0.002c-1.316-1.324-2.536-2.747-3.647-4.255l-0.073-0.104c-1.093-1.52-1.973-3.040-2.613-4.547-0.64-1.52-0.96-2.973-0.96-4.36 0-0.907 0.16-1.774 0.48-2.573 0.32-0.814 0.827-1.56 1.534-2.227 0.853-0.84 1.787-1.253 2.773-1.253 0.373 0 0.747 0.080 1.080 0.24 0.347 0.16 0.653 0.4 0.894 0.747l3.093 4.36c0.239 0.333 0.413 0.64 0.533 0.933 0.12 0.28 0.187 0.56 0.187 0.814 0 0.32-0.094 0.64-0.28 0.946-0.174 0.307-0.427 0.627-0.747 0.947l-1.013 1.053c-0.132 0.13-0.214 0.31-0.214 0.509 0 0.008 0 0.017 0 0.025l-0-0.001c0 0.107 0.014 0.2 0.040 0.307 0.040 0.107 0.079 0.187 0.107 0.267 0.24 0.44 0.653 1.013 1.24 1.707 0.6 0.693 1.24 1.4 1.934 2.107 0.665 0.661 1.356 1.301 2.068 1.916l0.051 0.043c0.693 0.587 1.267 0.987 1.72 1.227 0.066 0.027 0.146 0.067 0.239 0.107 0.107 0.040 0.213 0.053 0.334 0.053 0.005 0 0.011 0 0.017 0 0.208 0 0.396-0.087 0.53-0.226l0-0 1.013-1c0.333-0.333 0.653-0.587 0.96-0.747 0.268-0.174 0.595-0.278 0.946-0.28h0.001c0.253 0 0.52 0.053 0.813 0.173s0.6 0.294 0.934 0.52l4.413 3.134c0.347 0.239 0.587 0.52 0.733 0.853 0.133 0.333 0.213 0.666 0.213 1.039z"></path>
<path fill="none" stroke="#2887d9" style="stroke: var(--color1, #2887d9)" stroke-linejoin="round" stroke-linecap="round" stroke-miterlimit="4" stroke-width="1.1429" d="M25.048 12c0-0.8-0.626-2.027-1.56-3.027-0.853-0.92-1.987-1.64-3.107-1.64M29.714 12c0-5.16-4.173-9.333-9.333-9.333"></path>
</symbol>
</defs>
</svg>
